Flexion_states
version=1
nRows=7
nColumns=41
inDegrees=yes

# SIMM Motion File Header:
name Flexion_states
datacolumns 41
datarows 7
otherdata 1
range 0.00000000 1.06217374
endheader
time	/jointset/ground_thorax/thorax_tilt/value	/jointset/ground_thorax/thorax_tilt/speed	/jointset/ground_thorax/thorax_list/value	/jointset/ground_thorax/thorax_list/speed	/jointset/ground_thorax/thorax_rotation/value	/jointset/ground_thorax/thorax_rotation/speed	/jointset/ground_thorax/thorax_tx/value	/jointset/ground_thorax/thorax_tx/speed	/jointset/ground_thorax/thorax_ty/value	/jointset/ground_thorax/thorax_ty/speed	/jointset/ground_thorax/thorax_tz/value	/jointset/ground_thorax/thorax_tz/speed	/jointset/sternoclavicular/sternoclavicular_r2/value	/jointset/sternoclavicular/sternoclavicular_r2/speed	/jointset/sternoclavicular/sternoclavicular_r3/value	/jointset/sternoclavicular/sternoclavicular_r3/speed	/jointset/unrotscap/unrotscap_r3/value	/jointset/unrotscap/unrotscap_r3/speed	/jointset/unrotscap/unrotscap_r2/value	/jointset/unrotscap/unrotscap_r2/speed	/jointset/acromioclavicular/acromioclavicular_r2/value	/jointset/acromioclavicular/acromioclavicular_r2/speed	/jointset/acromioclavicular/acromioclavicular_r3/value	/jointset/acromioclavicular/acromioclavicular_r3/speed	/jointset/acromioclavicular/acromioclavicular_r1/value	/jointset/acromioclavicular/acromioclavicular_r1/speed	/jointset/unrothum/unrothum_r1/value	/jointset/unrothum/unrothum_r1/speed	/jointset/unrothum/unrothum_r3/value	/jointset/unrothum/unrothum_r3/speed	/jointset/unrothum/unrothum_r2/value	/jointset/unrothum/unrothum_r2/speed	/jointset/shoulder0/elv_angle/value	/jointset/shoulder0/elv_angle/speed	/jointset/shoulder1/shoulder_elv/value	/jointset/shoulder1/shoulder_elv/speed	/jointset/shoulder1/shoulder1_r2/value	/jointset/shoulder1/shoulder1_r2/speed	/jointset/shoulder2/shoulder_rot/value	/jointset/shoulder2/shoulder_rot/speed
      0.00000000	      0.00000000	      0.00000000	      0.00000000	      0.00000000	      0.00000000	      0.00000000	      0.00000000	      0.00000000	      0.00000000	      0.00000000	      0.00000000	      0.00000000	      0.00000000	      0.00000000	     -0.00000000	      0.00000000	      0.00000000	      0.00000000	     -0.00000000	      0.00000000	      0.00000000	      0.00000000	     -0.00000000	      0.00000000	     -0.00000000	      0.00000000	      0.00000000	      0.00000000	      0.00000000	      0.00000000	     -0.00000000	      0.00000000	     90.00000000	      0.00000000	     -0.00000000	      0.00000000	    -90.00000000	      0.00000000	      0.00000000	      0.00000000
      0.01000000	      0.00000000	      0.00000000	      0.00000000	      0.00000000	      0.00000000	      0.00000000	      0.00000000	      0.00000000	      0.00000000	      0.00000000	     -0.00000000	     -0.00000000	     -0.00065555	     -0.13108835	      0.00027766	      0.05552279	     -0.00027766	     -0.05552279	      0.00065555	      0.13108835	     -0.00013273	     -0.02654252	      0.00107269	      0.21450445	      0.00048218	      0.09642044	     -0.00048218	     -0.09642044	     -0.00107269	     -0.21450445	      0.00013273	      0.02654252	     90.00000000	     -0.00000000	      0.00270889	      0.54169253	    -90.00000000	     -0.00000000	     -0.00000000	     -0.00000000
      0.06000000	      0.00000000	      0.00000000	     -0.00000000	     -0.00000000	     -0.00000000	      0.00000000	      0.00000000	      0.00000000	     -0.00000000	     -0.00000000	     -0.00000000	     -0.00000000	     -0.02356236	     -0.78466609	      0.00997990	      0.33234726	     -0.00997990	     -0.33234726	      0.02356236	      0.78466609	     -0.00477086	     -0.15887770	      0.03855592	      1.28397654	      0.01733101	      0.57715160	     -0.01733101	     -0.57715160	     -0.03855592	     -1.28397654	      0.00477086	      0.15887770	     90.00000000	      0.00000000	      0.09736606	      3.24245257	    -90.00000000	     -0.00000000	     -0.00000000	     -0.00000000
      0.31000000	      0.00000000	      0.00000000	     -0.00000000	     -0.00000000	     -0.00000000	     -0.00000000	      0.00000000	      0.00000000	     -0.00000000	     -0.00000000	     -0.00000000	     -0.00000000	     -0.62397942	     -4.00553743	      0.26428802	      1.69655527	     -0.26428802	     -1.69655527	      0.62397942	      4.00553743	     -0.12634217	     -0.81103361	      1.02103932	      6.55440084	      0.45896047	      2.94622436	     -0.45896047	     -2.94622436	     -1.02103932	     -6.55440084	      0.12634217	      0.81103361	     90.00000000	     -0.00000000	      2.57845176	     16.55196430	    -90.00000000	      0.00000000	      0.00000000	     -0.00000000
      0.82782031	      0.00000000	      0.00000000	     -0.00000000	     -0.00000000	     -0.00000000	     -0.00000000	      0.00000000	      0.00000000	     -0.00000000	     -0.00000000	     -0.00000000	      0.00000000	     -4.37399233	    -10.41824283	      1.85261525	      4.41267247	     -1.85261525	     -4.41267247	      4.37399233	     10.41824283	     -0.88563766	     -2.10946601	      7.15731647	     17.04773473	      3.21723688	      7.66301185	     -3.21723688	     -7.66301185	     -7.15731647	    -17.04773473	      0.88563766	      2.10946601	     90.00000000	     -0.00000000	     18.07451966	     43.05099791	    -90.00000000	      0.00000000	     -0.00000000	     -0.00000000
      0.92645444	      0.00000000	      0.00000000	     -0.00000000	     -0.00000000	     -0.00000000	     -0.00000000	      0.00000000	      0.00000000	     -0.00000000	     -0.00000000	     -0.00000000	      0.00000000	     -5.45987103	    -11.59771712	      2.31254186	      4.91224172	     -2.31254186	     -4.91224172	      5.45987103	     11.59771712	     -1.10550431	     -2.34828372	      8.93417773	     18.97774973	      4.01594176	      8.53055983	     -4.01594176	     -8.53055983	     -8.93417773	    -18.97774973	      1.10550431	      2.34828372	     90.00000000	     -0.00000000	     22.56166421	     47.92490478	    -90.00000000	      0.00000000	     -0.00000000	     -0.00000000
      1.06217374	      0.00000000	      0.00000000	     -0.00000000	     -0.00000000	     -0.00000000	     -0.00000000	      0.00000000	      0.00000000	     -0.00000000	     -0.00000000	     -0.00000000	      0.00000000	     -7.14275248	    -13.19706764	      3.02533045	      5.58965058	     -3.02533045	     -5.58965058	      7.14275248	     13.19706764	     -1.44625095	     -2.67211718	     11.68793544	     21.59482286	      5.25376475	      9.70694266	     -5.25376475	     -9.70694266	    -11.68793544	    -21.59482286	      1.44625095	      2.67211718	     90.00000000	     -0.00000000	     29.51578565	     54.53385382	    -90.00000000	      0.00000000	     -0.00000000	     -0.00000000
